# xmcd
#
# Track frame offsets:
#       150
#       13350
#       21600
#       34725
#       45750
#       56700
#       67650
#       76950
#       87825
#       97200
#       109125
#       118125
#       128100
#       137775
#
# Disc length: 1991 seconds
#
# Revision: 1
# Processed by: cddbd v1.4PL0 Copyright (c) Steve Scherf et al.
# Submitted via: MusiCat 1.1
#
DISCID=be07c50e
DTITLE=Beatles - Please please me
DYEAR=1900
DGENRE=
TTITLE0=I saw her standing there
TTITLE1=Misery
TTITLE2=Anna (go to him)
TTITLE3=Chains
TTITLE4=Boys
TTITLE5=Ask me why
TTITLE6=Please please me
TTITLE7=Love me do
TTITLE8=P.S. I love you
TTITLE9=Baby it's you
TTITLE10=Do you want to know a secret
TTITLE11=A taste of honey
TTITLE12=There's a place
TTITLE13=Twist and shout
EXTD=0\n\n\n
EXTT0=
EXTT1=
EXTT2=
EXTT3=
EXTT4=
EXTT5=
EXTT6=
EXTT7=
EXTT8=
EXTT9=
EXTT10=
EXTT11=
EXTT12=
EXTT13=
PLAYORDER=
